<svg width="128" height="128" viewBox="0 0 128 128" fill="none" xmlns="http://www.w3.org/2000/svg">
  <path d="M56.4324 122.121L3.11351 71.2639C-1.03784 67.3041 -1.03784 60.7871 3.11351 56.8274L56.4324 5.96979C60.5838 2.01007 67.4162 2.01007 71.5676 5.96979L124.886 56.8274C129.038 60.7871 129.038 67.3041 124.886 71.2639L71.5676 122.121C70.2436 123.384 68.6343 124.244 66.9256 124.702C64.6191 125.319 62.1342 125.203 59.9243 124.353C58.6363 123.859 57.4422 123.115 56.4324 122.121Z" fill="#39B44D"/>
  <path fill-rule="evenodd" clip-rule="evenodd" d="M99.5784 48.0161C96.0757 48.0161 93.1784 50.7796 93.1784 54.1206C93.1784 56.8017 95.0378 59.194 97.6757 59.9777V71.3207C97.6757 77.7552 93.4378 81.3025 83.9243 82.7461L80.7676 83.1998C75.5784 84.1072 71.2108 85.6334 67.7514 87.8195V73.763L67.7946 72.9337V69.9226C69.6108 68.3965 72.1622 67.4478 75.6649 67.0353H75.7081C81.7189 66.1692 84.7892 63.4469 84.7892 59.0334V52.3926C87.5568 51.7327 89.6757 49.3404 89.6757 46.4531C89.6757 43.0708 86.7784 40.3073 83.2757 40.3073C79.773 40.3073 76.8757 43.0708 76.8757 46.4943C76.8757 49.4229 79.0811 51.8977 81.9351 52.4751V59.0747C81.9351 62.1269 79.946 63.6943 75.2757 64.3955C72.2487 64.7255 69.7838 65.468 67.8378 66.6229V44.1064C70.173 42.7865 71.7297 40.3941 71.7297 37.6718C71.7297 33.5471 68.227 30.1649 63.8595 30.1649C59.5351 30.1649 55.9892 33.5059 55.9892 37.6718C55.9892 40.4354 57.546 42.8277 59.8811 44.1064V58.6299C58.1081 57.805 55.9892 57.2275 53.4811 56.9388C47.6433 56.1138 46.9081 53.7215 46.9081 51.7004V47.0395C49.7189 46.4208 51.8811 43.9872 51.8811 41.0587C51.8811 37.7177 48.9838 34.9541 45.4811 34.9541C41.9784 34.9541 39.0811 37.6764 39.0811 41.0174C39.0811 43.946 41.2432 46.3383 44.0541 46.9982V51.6592C44.0541 56.0726 47.0811 58.7537 53.0919 59.5786C55.9892 59.9911 58.1946 60.6098 59.8811 61.7234V76.5219C55.8595 74.0884 50.8 72.4797 44.4865 71.7373C34.7568 70.3349 30.4324 66.8289 30.4324 60.2706V57.672C32.9838 56.8471 34.8 54.5785 34.8 51.8562C34.8 48.5152 31.9027 45.7516 28.4 45.7516C24.8973 45.7516 22 48.5152 22 51.8562C22 54.5373 23.8162 56.8471 26.3676 57.672V60.2706C26.3676 65.0553 28.227 68.8087 31.9459 71.4073C34.7568 73.4284 38.6919 74.7483 43.9243 75.4908H43.9676C50.973 76.357 56.1622 78.2543 59.9243 81.2241V124.373C59.9243 124.373 61.585 125.127 63.9243 125.127C66.2637 125.127 67.9243 124.385 67.9243 124.385V103.956L67.8378 100.656V92.6454C71.2108 89.7993 75.7946 87.9432 81.8487 86.9533L84.8324 86.5408C89.7622 85.7571 93.5243 84.4372 96.2487 82.4986C99.9676 79.9001 101.827 76.1466 101.827 71.3619V59.9777C104.162 59.1115 105.935 56.8429 105.935 54.1619C105.935 52.5533 105.286 51.0271 104.119 49.8309C102.908 48.676 101.308 48.0161 99.5784 48.0161ZM83.1892 42.6171C80.9838 42.6171 79.1676 44.3495 79.1676 46.4943C79.1676 48.5567 81.027 50.3303 83.1892 50.3303C85.3946 50.3303 87.2108 48.6392 87.2108 46.4943C87.2108 44.3495 85.4378 42.6171 83.1892 42.6171ZM41.373 41.0174C41.373 43.121 43.1892 44.8534 45.3946 44.8534C47.5568 44.8534 49.4162 43.121 49.4162 41.0174C49.4162 38.9138 47.6 37.1814 45.3946 37.1814C43.1892 37.1814 41.373 38.8726 41.373 41.0174ZM24.2919 51.7737C24.2919 53.9186 26.1081 55.6097 28.3135 55.6097C30.4757 55.6097 32.3351 53.8773 32.3351 51.7737C32.3351 49.6701 30.5189 47.9377 28.3135 47.9377C26.1081 47.9377 24.2919 49.6289 24.2919 51.7737ZM58.2811 37.5893C58.2811 40.4766 60.746 42.8277 63.773 42.8277C66.8 42.8277 69.2649 40.4354 69.2649 37.5481C69.2649 34.6608 66.8 32.3097 63.773 32.3097C60.746 32.3097 58.2811 34.6608 58.2811 37.5893ZM95.5568 54.1619C95.5568 56.2655 97.3297 57.9979 99.5784 57.9979C101.784 57.9979 103.6 56.2655 103.6 54.1206C103.6 53.1307 103.254 52.182 102.476 51.4396C101.697 50.7384 100.659 50.3259 99.5784 50.3259C97.373 50.3259 95.5568 52.0583 95.5568 54.1619Z" fill="#FAF8F9"/>
</svg>
